<?xml version="1.0" encoding="utf-8"?>
<!-- Generator: Adobe Illustrator 27.0.1, SVG Export Plug-In . SVG Version: 6.00 Build 0)  -->
<svg version="1.1" id="Calque_1" xmlns="http://www.w3.org/2000/svg" xmlns:xlink="http://www.w3.org/1999/xlink" x="0px" y="0px"
	 viewBox="0 0 500 500" style="enable-background:new 0 0 500 500;" xml:space="preserve">
<style type="text/css">
	.st0{display:none;}
	.st1{fill:#F8CACC;}
	.st2{fill:#E2505A;}
	.st3{fill:#272E44;stroke:#272E44;stroke-width:3.4452;stroke-miterlimit:10;}
	.st4{fill:#F8CACC;stroke:#272E44;stroke-width:3.4452;stroke-miterlimit:10.0001;}
	.st5{clip-path:url(#SVGID_00000076564180188862356870000003304577817657313411_);}
	.st6{fill:none;stroke:#272E44;stroke-width:3.4452;stroke-miterlimit:10;}
	.st7{fill:none;stroke:#272E44;stroke-width:17.226;stroke-miterlimit:10;}
	.st8{fill:#F8CACC;stroke:#272E44;stroke-width:3.4452;stroke-miterlimit:10;}
	.st9{fill:none;stroke:#272E44;stroke-width:2.5839;stroke-miterlimit:10;}
	.st10{fill:#F8CACC;stroke:#272E44;stroke-width:2.5839;stroke-miterlimit:10;}
	.st11{fill:#272E44;stroke:#272E44;stroke-width:2.5839;stroke-linejoin:bevel;stroke-miterlimit:10;}
	.st12{fill:#272E44;stroke:#272E44;stroke-width:2.5839;stroke-miterlimit:10;}
</style>
<g id="Reperes" class="st0">
</g>
<g id="Fond_00000114067098725294788760000015648174519876294331_">
	<rect id="Rose" x="0" y="0" class="st1" width="500" height="500"/>
</g>
<g id="Cercles">
	<ellipse id="Cercle_x5F_Moyen" class="st2" cx="364.6" cy="370.5" rx="75.4" ry="69.5"/>
	<ellipse id="Cercle_x5F_Grand" class="st2" cx="184.1" cy="168.9" rx="118.2" ry="108.9"/>
	<ellipse id="Cercle_x5F_Petit" class="st2" cx="105.8" cy="338.1" rx="45.8" ry="42.2"/>
</g>
<g id="Ramen">
	<g id="Ramen_00000132796987476498682400000002008618383832880797_">
		<g id="Bol">
			<g>
				<path class="st3" d="M234.5,405.9l7,12.5c3.9,6.9,23.6,4.6,44-5.1c20.4-9.7,33.9-23.2,30-30.1l-7-12.5L234.5,405.9z"/>
				<g>
					<path class="st3" d="M320.1,267.4l-92.6,44.1l-92.7,44.1c0,0,43.8,91.8,142.4,44.8C376,353.5,320.1,267.4,320.1,267.4z"/>
					<g>
						<g>
							<g>
								<path class="st1" d="M326.3,279c1.8,4.9-2,10.8-5.4,14.5c-3.7,3.8-7.7,7.4-12,10.6c-2.9,2.1-5.8,4.2-8.8,6.2l-0.2-0.2
									c2.7-2.3,5.4-4.5,8-7c3.8-3.5,7.6-7.2,10.8-11.3c2-2.7,4.2-5.3,5.8-8.2c0.8-1.4,1.4-2.9,1.5-4.6
									C326,279,326.3,279,326.3,279L326.3,279z"/>
							</g>
							<g>
								<path class="st1" d="M331.3,292.4c-0.1,2.9-1.5,5.8-3.2,8.3c-2.1,3.2-5.1,5.8-8,8.4c-5.2,4.5-10.8,8.5-16.7,12.2l-0.2-0.2
									c5.9-4.9,11.8-9.8,16.9-15.3c2.7-3.1,5.5-6.2,8.1-9.3c1-1.3,1.9-2.6,2.8-4.1L331.3,292.4L331.3,292.4z"/>
							</g>
							<g>
								<path class="st1" d="M334.7,306.4c-1,3.1-2.9,5.9-5,8.5c-2.1,2.5-4.8,4.6-7.4,6.7c-5.1,4.1-10.7,7.9-16.4,11.4l-0.2-0.2
									c5.1-4.1,10.3-8.3,15-12.8c2.4-2.2,4.4-4.7,6.8-6.9c1-1,2.5-2.4,3.5-3.3l3.5-3.5L334.7,306.4L334.7,306.4z"/>
							</g>
							<g>
								<path class="st1" d="M336,321.5c-1.7,3.5-4.4,6.5-7.3,9.1c-1.2,1.1-4.4,3.3-5.7,4.3c-5.1,3.7-10.4,7.2-16,10.4l-0.2-0.2
									c5-3.8,9.9-7.7,14.6-11.8c1.2-1,2.3-2.1,3.4-3.2c2.2-2.1,4.6-4.1,7.1-6c1.3-1,2.5-2,3.8-2.9
									C335.7,321.4,336,321.5,336,321.5L336,321.5z"/>
							</g>
							<g>
								<path class="st1" d="M334.2,338.4c-2.3,3.6-5.5,6.6-9,9.1l-3.6,2.4c-4.8,3.2-9.8,6.2-14.9,8.9l-0.1-0.2
									c4.6-3.4,9.1-6.8,13.6-10.4c1.1-0.9,2.2-1.8,3.2-2.7c2.1-1.9,4.5-3.5,6.9-5c1.2-0.8,2.5-1.5,3.8-2.2
									C333.9,338.2,334.2,338.4,334.2,338.4L334.2,338.4z"/>
							</g>
							<g>
								<path class="st1" d="M326.5,358.4c-1.3,1.9-2.9,3.4-4.6,4.8c-1.7,1.4-3.8,2.4-5.8,3.5c-1.5,0.8-4.4,2.5-5.9,3.3
									c-2,1-4,2.1-6,3l-0.1-0.2c2-1.5,11.7-8.4,13.4-9.9c2.7-2.1,5.7-3.7,8.9-4.8L326.5,358.4L326.5,358.4z"/>
							</g>
						</g>
					</g>
					<g>
						<path class="st1" d="M241.8,412.2c24.8-6.7,48-17.9,68-33C293.9,396.4,266.2,409.7,241.8,412.2L241.8,412.2z"/>
					</g>
				</g>
			</g>
			<g>
				
					<ellipse transform="matrix(0.9045 -0.4264 0.4264 0.9045 -111.1184 126.717)" class="st4" cx="227.5" cy="311.5" rx="102.6" ry="24.3"/>
				<g>
					<g>
						<defs>
							
								<ellipse id="SVGID_1_" transform="matrix(0.9045 -0.4264 0.4264 0.9045 -111.1184 126.717)" cx="227.5" cy="311.5" rx="102.6" ry="24.3"/>
						</defs>
						<clipPath id="SVGID_00000037662879055734601330000001672165489902466480_">
							<use xlink:href="#SVGID_1_"  style="overflow:visible;"/>
						</clipPath>
						<g style="clip-path:url(#SVGID_00000037662879055734601330000001672165489902466480_);">
							<g>
								<line class="st6" x1="143.9" y1="330.8" x2="164.8" y2="368.3"/>
								<line class="st7" x1="150.7" y1="321.2" x2="174.5" y2="363.6"/>
							</g>
						</g>
					</g>
				</g>
			</g>
		</g>
		<g id="Nouilles">
			<path class="st8" d="M185.7,353.7c16-4.8,34.5-11.9,53.6-21c38.4-18.3,68.4-39.4,78.2-53.7c0,0,4.9-14.2-2.2-27.4
				c-7.1-13.2-29.6-21.9-25.3-33.6c5-13.7,37,0.2,67.8-13.7c35.6-16,30.8-62.2-6.7-83.4s-91.1,3.9-108.7-13.7
				c-17.7-17.6,14-23.5,19.3,2.6c0,0,3.4,2.3,6.4-1c0,0-1.7-28.7-44.8-33s-80.1,35.9-57.4,71.8c22.7,35.9,55.2-11.6,91.3-17.3
				c36.1-5.7,73.4,10.1,71.7,42.4c-1.7,32.3-26.9,35.1-52.4,35.1c-25.5,0-72.7-5.3-81.8,26.8c-12,42.6,52.4,40.3,46.6,65.4
				C234.4,329.1,185.7,353.7,185.7,353.7z"/>
			<g>
				<path class="st9" d="M258.7,90.4c-11.7-12.8-39.2-4.2-27.2,17.2c11.1,19.8,48.6,10.8,76.6,10.3c23.3-0.4,55.2,9.5,63.3,38.2
					c8.1,28.7-9.8,41.8-27.7,46c-17.9,4.1-25.8,1.9-49,4.8c-17.4,2.2-17.5,15-8.9,25.1c10.4,12.4,22.8,19.7,26.1,32.8
					c3.5,14.1-4.7,25.6-3.9,24.9"/>
				<path class="st9" d="M243.6,80.6c0,0-13.5-2.7-20.1,7.9c-7.5,12.1-1.8,37.1,32.8,37.9c25.5,0.5,38.7-4.3,69.9-0.1
					c31.2,4.1,42,33.1,37.7,48.3c-5,17.6-25.7,29.1-62.9,31.4"/>
				<path class="st9" d="M235.3,77.9c0,0-11-3.7-19.8,6.5c-10.4,12.1-7.7,45.7,47.2,45.2c35-0.3,66.1-1.2,81.5,12.5
					c15.4,13.8,18.8,57.2-43.3,63.8"/>
				<path class="st9" d="M306.7,137c0,0,24.5-0.2,34.3,15.3s-0.5,40.9-31.2,50.9"/>
				<path class="st9" d="M318.5,145.5c0,0,14.3,1.6,17.9,17.1c3.2,13.6-9.5,32-20.3,37.1"/>
				<path class="st9" d="M251.5,131.5c-23,5.4-47.6,0.4-54.3-23.9c-6.3-22.7,15.1-31.2,23.4-32"/>
				<path class="st9" d="M205.1,76.5c-16.4,5.4-24.1,22.3-19.7,40.6c4.5,18.3,19.2,24.4,30.3,24.4c15.7,0,24.5-5.8,24.5-5.8"/>
				<path class="st9" d="M190.4,81.2c-17.4,9.1-22.1,31.6-14.8,50.4c7.3,18.9,26.6,24.7,48.2,12.9"/>
				<path class="st9" d="M163.3,106.6c-6.4,20.6,9.6,53,34.8,51.8"/>
				<path class="st9" d="M295.4,299.9c7.5-5.9,12.7-19.8,8.5-34.8c-4.6-16.5-37.2-28.4-35.3-46.5c1.1-9.8,13.6-10.9,13.6-10.9"/>
				<path class="st9" d="M272,207.7c-8.9-0.2-18.8,5.7-17.1,16.6c2.3,14.6,28.1,24.2,37.8,39.5c13,20.4-5.7,42.1-5.7,42.1"/>
				<path class="st9" d="M259.6,207.5c-4.9,0-23.5,7.3-18.2,23.5c6.4,19.9,36.7,18.6,43.7,40.8s-12.7,43.3-12.7,43.3"/>
				<path class="st9" d="M249.7,207.5c-13.8,0.9-24.3,11.1-22.2,23.5c3.9,24.1,42.7,24.2,48.6,48c5.9,23.8-16.5,43.5-16.5,43.5"/>
				<path class="st9" d="M232.4,208.7c-15,1.9-24.4,16.6-16.7,32.4c8.4,17.3,38.7,17.7,49.4,36.3c10.7,18.5-6.4,40.7-19.2,52.1"/>
				<path class="st9" d="M207.2,217.2c-10.4,9.4-10.4,25.1,3.6,37.8c14,12.7,36.7,14.8,45.9,30.9c9.2,16-23.7,47.4-42.5,57.8"/>
				<path class="st9" d="M193.3,247.1c3.2,16,23.4,23.9,37.5,30.2c14.2,6.3,21.4,12.9,15.4,27.9c-6,15-37.5,38.7-52.7,46.1"/>
			</g>
		</g>
		<g id="Baguettes">
			<g>
				<polygon class="st10" points="236.4,237.5 235.4,240.5 96.3,200.3 98.3,194.7 				"/>
				<polygon class="st11" points="93.9,201.4 96.3,200.3 98.3,194.7 95.8,195.7 				"/>
				<polygon class="st11" points="235.4,240.5 233.2,240.7 93.9,201.4 96.3,200.3 				"/>
			</g>
			<g>
				<polygon class="st10" points="250.3,255.6 250.6,258.7 105.8,273.3 105.1,267.4 				"/>
				<polygon class="st11" points="104,275.1 105.8,273.3 105.1,267.4 103.3,269.3 				"/>
				<polygon class="st11" points="250.6,258.7 248.7,259.7 104,275.1 105.8,273.3 				"/>
			</g>
		</g>
		<g id="Légumes">
			<g>
				<g>
					<path class="st12" d="M205.7,317.8c0.7-1.9,4-3.4,4-5.5c0-1-0.8-2-1.7-2.9c-0.5-0.7-1.2-1.3-1.8-1.9c-0.2-0.3-0.3-0.5-0.4-0.8
						c-0.6-1.7,0.6-4.3,0-6l0,0l0,0c-0.1-0.2-0.2-0.4-0.3-0.6c-0.2-0.2-0.4-0.4-0.6-0.5l-0.2-0.3c0-0.1-0.1-0.3-0.2-0.4
						c-0.1-0.1-0.2-0.3-0.4-0.4v0l0,0c-1.5-1.1-4.7-0.8-6.3-1.9l0,0c-0.5-0.8-1-1.8-1.6-2.6l0,0l0,0c-0.2-0.3-0.5-0.6-0.8-0.8
						l-0.3-0.4c-0.2-0.4-0.5-0.6-0.8-0.9l0,0l0,0c-0.3-0.2-0.6-0.4-0.9-0.5c-2-0.6-4.7,1.8-7,1.8c-2.3,0-4.9-2.4-7-1.8
						c-2.1,0.6-2.7,4-4.4,5.2c-1.8,1.2-5.5,0.7-6.8,2.3c-1.3,1.6,0.4,4.7-0.3,6.6c-0.7,1.9-4,3.4-4,5.5c0,1,0.8,2,1.7,2.9
						c0.5,0.7,1.2,1.3,1.8,1.9c0.2,0.3,0.3,0.5,0.4,0.8c0.6,1.8-0.7,4.5,0,6.2l0,0l0,0c0,0.1,0.1,0.3,0.2,0.4
						c0.1,0.2,0.3,0.4,0.6,0.5l0.3,0.4c0,0.1,0.1,0.2,0.2,0.4c0.1,0.2,0.3,0.3,0.5,0.4l0,0l0,0c1.5,1.1,4.7,0.8,6.3,1.9l0,0
						c0.8,1.2,1.5,2.8,2.5,3.6c0.5,0.8,1.1,1.4,1.9,1.6c2,0.6,4.7-1.8,7-1.8c2.3,0,4.9,2.4,7,1.8c2.1-0.6,2.7-4,4.4-5.2
						c1.8-1.2,5.5-0.7,6.8-2.3C206.6,322.8,205,319.7,205.7,317.8z"/>
					<path class="st10" d="M208.5,311c0,2.1-3.3,3.7-4,5.5c-0.7,2,1,5-0.3,6.6c-1.3,1.6-5,1.1-6.8,2.3c-1.7,1.2-2.4,4.6-4.4,5.2
						c-2,0.6-4.7-1.8-7-1.8s-4.9,2.4-7,1.8c-2.1-0.6-2.7-4-4.4-5.2c-1.8-1.2-5.5-0.7-6.8-2.3c-1.3-1.6,0.4-4.7-0.3-6.6
						c-0.7-1.9-4-3.4-4-5.5c0-2.1,3.3-3.7,4-5.5c0.7-2-1-5,0.3-6.6c1.3-1.6,5-1.1,6.8-2.3c1.7-1.2,2.4-4.6,4.4-5.2
						c2-0.6,4.7,1.8,7,1.8c2.3,0,4.9-2.4,7-1.8c2.1,0.6,2.7,4,4.4,5.2c1.8,1.2,5.5,0.7,6.8,2.3c1.3,1.6-0.4,4.7,0.3,6.6
						C205.2,307.3,208.5,308.9,208.5,311z"/>
				</g>
				<path class="st6" d="M199,304.3c4.8,10.7-3.6,17.9-11.8,18.4c-7.7,0.4-13.3-4.6-13.3-11.8c0-5.7,5-10.3,11.2-10.3
					c4.9,0,8.9,3.7,8.9,8.2c0,3.7-3.2,6.6-7.2,6.6c-3.2,0-5.8-2.4-5.8-5.3c0-2.3,2-4.2,4.6-4.2c2,0,3.7,1.5,3.7,3.4
					c0,1.5-1.3,2.7-3,2.7c-1.3,0-2.4-1-2.4-2.2c0-0.9,0.8-1.7,1.9-1.7c0.8,0,1.5,0.6,1.5,1.4"/>
			</g>
			<g>
				<g>
					<path class="st12" d="M188.3,145.9c-1.4-1.5-1-4.9-2.9-6.1c-0.9-0.6-2.2-0.4-3.5-0.2c-0.9,0-1.8,0.2-2.7,0.4
						c-0.3,0-0.7,0-1-0.1c-1.9-0.5-3.6-2.8-5.4-3.3l0,0l0,0c-0.2,0-0.5-0.1-0.8-0.1c-0.3,0-0.6,0.1-0.9,0.2l-0.4,0
						c-0.1,0-0.3,0-0.5,0c-0.2,0-0.4,0-0.6,0.1h0l0,0c-1.9,0.6-3.3,3.2-5.2,3.8c0,0,0,0-0.1,0c-1.1,0-2.2-0.2-3.2-0.2l0,0l0,0
						c-0.4,0-0.8,0-1.2,0.1l-0.5,0c-0.4,0-0.9,0-1.3,0.1l0,0l0,0c-0.3,0.1-0.7,0.2-1,0.4c-1.6,1.2-0.9,4.6-2.2,6.3s-4.9,2.5-5.4,4.4
						c-0.6,2,2.2,4.3,2.3,6.3c0.1,2-2.4,4.6-1.6,6.5s4.4,2.3,5.9,3.9c1.4,1.5,1,4.9,2.9,6.1c0.9,0.6,2.2,0.4,3.5,0.2
						c0.9,0,1.8-0.2,2.7-0.4c0.3,0,0.7,0,1,0.1c2,0.5,3.7,3,5.7,3.3l0,0l0,0c0.2,0,0.3,0,0.5,0c0.2,0,0.5-0.1,0.8-0.2l0.5,0
						c0.1,0,0.3,0,0.4,0c0.2,0,0.4,0,0.6-0.1h0l0,0c1.8-0.6,3.3-3.2,5.1-3.8c0,0,0,0,0.1,0c1.5,0,3.3,0.4,4.6,0c1,0,1.8-0.1,2.5-0.6
						c1.6-1.2,0.9-4.6,2.2-6.3s4.9-2.5,5.4-4.4c0.6-2-2.2-4.3-2.3-6.3c-0.1-2,2.4-4.6,1.6-6.5C193.4,147.8,189.7,147.5,188.3,145.9z
						"/>
					<path class="st10" d="M183.8,140c1.9,1.2,1.5,4.5,2.9,6.1c1.4,1.6,5.1,2,5.9,3.9s-1.7,4.5-1.6,6.5c0.1,2,2.9,4.3,2.3,6.3
						c-0.6,1.9-4.2,2.6-5.4,4.4c-1.3,1.7-0.5,5.1-2.2,6.3c-1.7,1.3-5.1-0.1-7.2,0.6c-2,0.7-3.6,3.8-5.8,4c-2.2,0.1-4.1-2.9-6.2-3.4
						c-2.1-0.5-5.3,1.2-7.2,0c-1.9-1.2-1.5-4.5-2.9-6.1c-1.4-1.6-5.1-2-5.9-3.9s1.7-4.5,1.6-6.5c-0.1-2-2.9-4.3-2.3-6.3
						c0.6-1.9,4.2-2.6,5.4-4.4c1.3-1.7,0.5-5.1,2.2-6.3c1.7-1.3,5.1,0.1,7.2-0.6c2-0.7,3.6-3.8,5.8-4c2.2-0.1,4.1,2.9,6.2,3.4
						C178.6,140.5,181.9,138.8,183.8,140z"/>
				</g>
				<path class="st6" d="M172.4,143.7c12.3,2.1,14.3,12.6,10.3,19.1c-3.8,6.2-11.5,7.7-17.9,3.8c-5.2-3.1-6.6-9.5-3.3-14.3
					c2.7-3.8,8.3-4.9,12.4-2.4c3.3,2,4.3,6.1,2.1,9.1c-1.7,2.5-5.3,3.1-7.9,1.6c-2.1-1.3-2.7-3.9-1.4-5.8c1.1-1.6,3.4-2,5.1-1
					c1.4,0.8,1.7,2.5,0.9,3.7c-0.7,1-2.2,1.3-3.2,0.6c-0.9-0.5-1.1-1.6-0.5-2.4c0.4-0.6,1.4-0.8,2.1-0.4"/>
			</g>
			<g>
				<g>
					<path class="st12" d="M342.5,93.2c-1.4-1.5-1-4.9-2.9-6.1c-0.9-0.6-2.2-0.4-3.5-0.2c-0.9,0-1.8,0.2-2.7,0.4c-0.3,0-0.7,0-1-0.1
						c-1.9-0.5-3.6-2.8-5.4-3.3l0,0l0,0c-0.2,0-0.5-0.1-0.8-0.1c-0.3,0-0.6,0.1-0.9,0.2l-0.4,0c-0.1,0-0.3,0-0.5,0
						c-0.2,0-0.4,0-0.6,0.1h0l0,0c-1.9,0.6-3.3,3.2-5.2,3.8c0,0,0,0-0.1,0c-1.1,0-2.2-0.2-3.2-0.2l0,0l0,0c-0.4,0-0.8,0-1.2,0.1
						l-0.5,0c-0.4,0-0.9,0-1.3,0.1l0,0l0,0c-0.3,0.1-0.7,0.2-1,0.4c-1.6,1.2-0.9,4.6-2.2,6.3c-1.3,1.7-4.9,2.5-5.4,4.4
						c-0.6,2,2.2,4.3,2.3,6.3s-2.4,4.6-1.6,6.5c0.8,1.9,4.4,2.3,5.9,3.9c1.4,1.5,1,4.9,2.9,6.1c0.9,0.6,2.2,0.4,3.5,0.2
						c0.9,0,1.8-0.2,2.7-0.4c0.3,0,0.7,0,1,0.1c2,0.5,3.7,3,5.7,3.3l0,0l0,0c0.2,0,0.3,0,0.5,0c0.2,0,0.5-0.1,0.8-0.2l0.5,0
						c0.1,0,0.3,0,0.4,0c0.2,0,0.4,0,0.6-0.1h0l0,0c1.8-0.6,3.3-3.2,5.1-3.8c0,0,0,0,0.1,0c1.5,0,3.3,0.4,4.6,0c1,0,1.8-0.1,2.5-0.6
						c1.6-1.2,0.9-4.6,2.2-6.3c1.3-1.7,4.9-2.5,5.4-4.4c0.6-2-2.2-4.3-2.3-6.3s2.4-4.6,1.6-6.5C347.6,95.2,343.9,94.8,342.5,93.2z"
						/>
					<path class="st10" d="M338,87.3c1.9,1.2,1.5,4.5,2.9,6.1c1.4,1.6,5.1,2,5.9,3.9c0.8,1.9-1.7,4.5-1.6,6.5s2.9,4.3,2.3,6.3
						c-0.6,1.9-4.2,2.6-5.4,4.4c-1.3,1.7-0.5,5.1-2.2,6.3c-1.7,1.3-5.1-0.1-7.2,0.6c-2,0.7-3.6,3.8-5.8,4c-2.2,0.1-4.1-2.9-6.2-3.4
						c-2.1-0.5-5.3,1.2-7.2,0c-1.9-1.2-1.5-4.5-2.9-6.1c-1.4-1.6-5.1-2-5.9-3.9s1.7-4.5,1.6-6.5c-0.1-2-2.9-4.3-2.3-6.3
						c0.6-1.9,4.2-2.6,5.4-4.4c1.3-1.7,0.5-5.1,2.2-6.3c1.7-1.3,5.1,0.1,7.2-0.6c2-0.7,3.6-3.8,5.8-4c2.2-0.1,4.1,2.9,6.2,3.4
						C332.8,87.9,336.1,86.1,338,87.3z"/>
				</g>
				<path class="st6" d="M326.6,91c12.3,2.1,14.3,12.6,10.3,19.1c-3.8,6.2-11.5,7.7-17.9,3.8c-5.2-3.1-6.6-9.5-3.3-14.3
					c2.7-3.8,8.3-4.9,12.4-2.4c3.3,2,4.3,6.1,2.1,9.1c-1.7,2.5-5.3,3.1-7.9,1.6c-2.1-1.3-2.7-3.9-1.4-5.8c1.1-1.6,3.4-2,5.1-1
					c1.4,0.8,1.7,2.5,0.9,3.7c-0.7,1-2.2,1.3-3.2,0.6c-0.9-0.5-1.1-1.6-0.5-2.4c0.4-0.6,1.4-0.8,2.1-0.4"/>
			</g>
		</g>
		<g id="Petits_Cercles">
			<path class="st12" d="M83.2,329.5c0,1.5-1.3,2.7-2.9,2.7c-1.6,0-2.9-1.2-2.9-2.7c0-1.5,1.3-2.7,2.9-2.7
				C81.9,326.9,83.2,328.1,83.2,329.5z"/>
			<path class="st12" d="M278.9,150.6c0,1.5-1.3,2.7-2.9,2.7c-1.6,0-2.9-1.2-2.9-2.7c0-1.5,1.3-2.7,2.9-2.7
				C277.6,147.9,278.9,149.1,278.9,150.6z"/>
			<ellipse class="st12" cx="289.8" cy="67.6" rx="2.9" ry="2.7"/>
			<path class="st12" d="M169.3,244.4c0,1.5-1.3,2.7-2.9,2.7s-2.9-1.2-2.9-2.7s1.3-2.7,2.9-2.7S169.3,243,169.3,244.4z"/>
		</g>
		<g id="Oeuf">
			<path class="st12" d="M325.5,236.5c6.9-16.5,6-39.9-4.1-44.6c-10.1-4.8-31.1,8.2-41.7,22.9c-8.5,11.9-3.3,29.1,9.3,35.1
				C301.7,255.9,320,249.9,325.5,236.5z"/>
			<path class="st10" d="M324.2,234.3c6.9-16.5,6-39.9-4.1-44.6c-10.1-4.8-31.1,8.2-41.7,22.9c-8.5,11.9-3.3,29.1,9.3,35.1
				C300.4,253.7,318.6,247.7,324.2,234.3z"/>
			<ellipse class="st12" cx="299.3" cy="227" rx="13.8" ry="12.8"/>
		</g>
	</g>
</g>
</svg>
