<?xml version="1.0" encoding="utf-8"?>
<!-- Generator: Adobe Illustrator 27.0.1, SVG Export Plug-In . SVG Version: 6.00 Build 0)  -->
<svg version="1.1" xmlns="http://www.w3.org/2000/svg" xmlns:xlink="http://www.w3.org/1999/xlink" x="0px" y="0px"
	 viewBox="0 0 1920 1080" style="enable-background:new 0 0 1920 1080;" xml:space="preserve">
<style type="text/css">
	.st0{display:none;}
	.st1{fill:#F8CACC;}
	.st2{fill:#DB2C3D;}
	.st3{fill:#272E44;stroke:#272E44;stroke-width:3.4452;stroke-miterlimit:10;}
	.st4{fill:#F8CACC;stroke:#272E44;stroke-width:3.4452;stroke-miterlimit:10;}
	.st5{clip-path:url(#SVGID_00000020362510355616571060000015981843322853359804_);}
	.st6{fill:none;stroke:#272E44;stroke-width:3.4452;stroke-miterlimit:10;}
	.st7{fill:none;stroke:#272E44;stroke-width:17.226;stroke-miterlimit:10;}
	.st8{fill:none;stroke:#272E44;stroke-width:2.5839;stroke-miterlimit:10;}
	.st9{fill:#F8CACC;stroke:#272E44;stroke-width:2.5839;stroke-miterlimit:10;}
	.st10{fill:#272E44;stroke:#272E44;stroke-width:2.5839;stroke-linejoin:bevel;stroke-miterlimit:10;}
	.st11{fill:#272E44;stroke:#272E44;stroke-width:2.5839;stroke-miterlimit:10;}
</style>
<g id="Reperes" class="st0">
</g>
<g id="Fond_00000114067098725294788760000015648174519876294331_">
	<rect id="Rose" x="-1" class="st1" width="1920" height="1080"/>
</g>
<g id="Cercles">
	<circle id="Cercle_x5F_Moyen" class="st2" cx="1605.2" cy="912.2" r="155.8"/>
	
		<ellipse id="Cercle_x5F_Grand" transform="matrix(0.7071 -0.7071 0.7071 0.7071 35.4999 1005.9069)" class="st2" cx="1232" cy="460.1" rx="244.3" ry="244.3"/>
	<circle id="Cercle_x5F_Petit" class="st2" cx="1069.9" cy="839.5" r="94.6"/>
</g>
<g id="Ramen">
	<g id="Ramen_00000132796987476498682400000002008618383832880797_">
		<g id="Bol">
			<g>
				<path class="st3" d="M1336.1,991.6l14.5,28.1c8,15.5,48.8,10.4,91-11.4c42.2-21.8,70-52.1,62-67.6l-14.5-28.1L1336.1,991.6z"/>
				<g>
					<path class="st3" d="M1513.1,681l-191.5,98.9L1130,878.8c0,0,90.5,205.9,294.5,100.5C1628.6,874,1513.1,681,1513.1,681z"/>
					<g>
						<g>
							<g>
								<path class="st1" d="M1525.9,706.9c3.7,11.1-4.1,24.3-11.1,32.5c-7.7,8.6-16,16.5-24.9,23.8c-5.9,4.8-12,9.4-18.2,13.8
									c0,0-0.4-0.5-0.4-0.5c5.6-5.1,11.2-10.2,16.5-15.6c7.9-7.9,15.8-16.1,22.3-25.3c4.2-6,8.7-11.8,12-18.3
									c1.6-3.2,2.9-6.6,3.2-10.4C1525.3,707,1525.9,706.9,1525.9,706.9L1525.9,706.9z"/>
							</g>
							<g>
								<path class="st1" d="M1536.3,736.9c-0.3,6.6-3.2,12.9-6.6,18.6c-4.3,7.2-10.5,13.1-16.6,18.8
									c-10.7,10.1-22.4,19.1-34.5,27.4c0,0-0.4-0.5-0.4-0.5c12.2-10.9,24.3-22,35-34.4c5.6-7,11.3-13.8,16.7-20.9
									c2-2.9,4-5.9,5.8-9.1L1536.3,736.9L1536.3,736.9z"/>
							</g>
							<g>
								<path class="st1" d="M1543.2,768.4c-2,7-6,13.2-10.4,19c-4.4,5.7-10,10.3-15.3,15c-10.6,9.3-22.2,17.8-34,25.6
									c0,0-0.4-0.5-0.4-0.5c10.6-9.2,21.2-18.6,31-28.6c4.9-5,9.2-10.5,14.1-15.4c2.1-2.2,5.1-5.4,7.2-7.5c0,0,7.2-7.8,7.2-7.8
									S1543.2,768.4,1543.2,768.4L1543.2,768.4z"/>
							</g>
							<g>
								<path class="st1" d="M1545.9,802.3c-3.6,7.8-9.1,14.6-15.1,20.5c-2.4,2.4-9,7.5-11.8,9.7c-10.5,8.4-21.6,16.2-33,23.3
									c0,0-0.4-0.5-0.4-0.5c10.3-8.6,20.4-17.3,30.2-26.5c2.4-2.3,4.7-4.7,7.1-7.1c4.6-4.8,9.6-9.1,14.7-13.5
									c2.6-2.2,5.1-4.4,7.9-6.4C1545.4,802,1545.9,802.3,1545.9,802.3L1545.9,802.3z"/>
							</g>
							<g>
								<path class="st1" d="M1542.2,840.1c-4.8,8-11.3,14.8-18.7,20.4c0,0-7.5,5.3-7.5,5.3c-9.9,7.2-20.2,13.8-30.8,20
									c0,0-0.3-0.5-0.3-0.5c9.5-7.6,18.9-15.3,28.1-23.3c2.3-2,4.5-4.1,6.7-6.1c4.4-4.2,9.3-7.8,14.2-11.3
									c2.5-1.7,5.1-3.4,7.9-4.9C1541.7,839.7,1542.2,840.1,1542.2,840.1L1542.2,840.1z"/>
							</g>
							<g>
								<path class="st1" d="M1526.4,885.1c-2.6,4.2-6,7.6-9.6,10.8c-3.6,3.2-7.9,5.4-11.9,7.9c-3,1.9-9.1,5.6-12.2,7.4
									c-4.2,2.3-8.3,4.7-12.5,6.8c0,0-0.3-0.5-0.3-0.5c4.2-3.4,24.1-18.8,27.7-22.2c5.5-4.6,11.7-8.2,18.5-10.7
									C1526.1,884.6,1526.4,885.1,1526.4,885.1L1526.4,885.1z"/>
							</g>
						</g>
					</g>
					<g>
						<path class="st1" d="M1351.2,1005.7c51.3-15.1,99.3-40.2,140.6-74.1C1458.9,970.3,1401.7,1000.1,1351.2,1005.7L1351.2,1005.7z
							"/>
					</g>
				</g>
			</g>
			<g>
				
					<ellipse transform="matrix(0.8885 -0.4589 0.4589 0.8885 -210.5156 693.3915)" class="st4" cx="1321.5" cy="779.9" rx="215.6" ry="53.6"/>
				<g>
					<defs>
						
							<ellipse id="SVGID_1_" transform="matrix(0.8885 -0.4589 0.4589 0.8885 -210.5156 693.3915)" cx="1321.5" cy="779.9" rx="215.6" ry="53.6"/>
					</defs>
					<clipPath id="SVGID_00000054945946826076013630000006467059249133644672_">
						<use xlink:href="#SVGID_1_"  style="overflow:visible;"/>
					</clipPath>
					<g style="clip-path:url(#SVGID_00000054945946826076013630000006467059249133644672_);">
						<g>
							<line class="st6" x1="1148.7" y1="823.2" x2="1192" y2="907.1"/>
							<line class="st7" x1="1162.8" y1="801.5" x2="1212" y2="896.7"/>
						</g>
					</g>
				</g>
			</g>
		</g>
		<g id="Nouilles">
			<path class="st4" d="M1235.3,874.5c33.1-10.7,71.4-26.6,110.9-47c79.5-41,141.4-88.3,161.6-120.4c0,0,10.2-31.8-4.6-61.4
				c-14.7-29.5-61.3-49.1-52.4-75.3c10.4-30.7,76.4,0.4,140.2-30.7c73.6-35.9,63.7-139.6-13.9-187.1
				c-77.6-47.5-188.3,8.7-224.8-30.7c-36.5-39.4,29-52.7,40,5.8c0,0,7,5.2,13.3-2.3c0,0-3.5-64.3-92.7-74.1
				c-89.2-9.8-165.7,80.5-118.7,161c46.9,80.5,114.1-26.1,188.8-38.8c74.7-12.7,151.8,22.6,148.3,95s-55.6,78.8-108.3,78.8
				c-52.7,0-150.3-11.9-169.1,60.2c-24.9,95.6,108.4,90.4,96.3,146.6C1335.9,819.3,1235.3,874.5,1235.3,874.5z"/>
			<g>
				<path class="st8" d="M1386.2,283.9c-24.1-28.6-81.1-9.5-56.2,38.6c22.9,44.3,100.5,24.3,158.4,23.2
					c48.2-1,114.1,21.4,130.9,85.7c16.8,64.3-20.3,93.8-57.3,103.1c-37.1,9.3-53.3,4.2-101.4,10.8c-35.9,4.9-36.1,33.6-18.5,56.4
					c21.4,27.8,47.2,44.1,53.9,73.6c7.2,31.7-9.7,57.4-8.1,55.8"/>
				<path class="st8" d="M1355,262c0,0-27.9-6.1-41.6,17.7c-15.6,27.2-3.7,83.3,67.8,84.9c52.8,1.2,80-9.6,144.6-0.3
					c64.6,9.3,86.9,74.3,77.9,108.3c-10.4,39.4-53.2,65.3-130,70.4"/>
				<path class="st8" d="M1337.8,255.9c0,0-22.7-8.4-40.9,14.6c-21.4,27.1-15.9,102.5,97.6,101.4c72.4-0.7,136.7-2.8,168.5,28.1
					c31.9,30.9,38.8,128.2-89.5,143"/>
				<path class="st8" d="M1485.3,388.4c0,0,50.6-0.5,70.9,34.3c20.3,34.8-1,91.7-64.5,114.2"/>
				<path class="st8" d="M1509.8,407.6c0,0,29.5,3.5,37.1,38.3c6.6,30.4-19.6,71.8-42,83.1"/>
				<path class="st8" d="M1371.3,376.2c-47.5,12.2-98.4,0.8-112.3-53.7c-13-51,31.3-69.9,48.4-71.7"/>
				<path class="st8" d="M1275.3,252.9c-33.9,12.2-49.9,49.9-40.7,91c9.3,41.1,39.8,54.7,62.6,54.7c32.4,0,50.7-13.1,50.7-13.1"/>
				<path class="st8" d="M1245,263.3c-35.9,20.4-45.7,70.8-30.6,113.1c15.1,42.3,54.9,55.4,99.6,28.9"/>
				<path class="st8" d="M1188.8,320.4c-13.2,46.1,19.9,118.9,72,116.1"/>
				<path class="st8" d="M1462.1,753.8c15.5-13.2,26.2-44.4,17.5-78c-9.6-36.9-77-63.7-72.9-104.3c2.2-21.9,28.2-24.5,28.2-24.5"/>
				<path class="st8" d="M1413.6,547.1c-18.5-0.4-38.8,12.8-35.3,37.2c4.7,32.7,58.1,54.3,78.2,88.5c26.9,45.7-11.8,94.5-11.8,94.5"
					/>
				<path class="st8" d="M1388.1,546.6c-10.2-0.1-48.5,16.4-37.6,52.7c13.3,44.7,75.9,41.8,90.4,91.6c14.5,49.8-26.2,97-26.2,97"/>
				<path class="st8" d="M1367.6,546.6c-28.5,2.1-50.2,24.9-46,52.7c8.1,54.1,88.2,54.2,100.4,107.6c12.2,53.4-34.1,97.5-34.1,97.5"
					/>
				<path class="st8" d="M1331.7,549.3c-31,4.3-50.4,37.2-34.5,72.7c17.4,38.8,80,39.8,102.2,81.4s-13.3,91.2-39.7,116.9"/>
				<path class="st8" d="M1279.6,568.4c-21.5,21.1-21.6,56.4,7.4,84.8c29,28.4,75.9,33.3,95,69.2c19.1,35.9-48.9,106.3-87.8,129.6"
					/>
				<path class="st8" d="M1250.9,635.3c6.7,35.9,48.4,53.6,77.6,67.8c29.3,14.2,44.3,29,31.9,62.6c-12.5,33.6-77.5,86.7-109,103.4"
					/>
			</g>
		</g>
		<g id="Baguettes">
			<g>
				<polygon class="st9" points="1340,613.9 1337.9,620.5 1050.4,530.4 1054.5,517.8 				"/>
				<polygon class="st10" points="1045.3,532.8 1050.4,530.4 1054.5,517.8 1049.3,520.1 				"/>
				<polygon class="st10" points="1337.9,620.5 1333.4,621 1045.3,532.8 1050.4,530.4 				"/>
			</g>
			<g>
				<polygon class="st9" points="1368.7,654.5 1369.4,661.5 1069.9,694.1 1068.6,680.9 				"/>
				<polygon class="st10" points="1066.2,698.3 1069.9,694.1 1068.6,680.9 1064.8,685.1 				"/>
				<polygon class="st10" points="1369.4,661.5 1365.4,663.7 1066.2,698.3 1069.9,694.1 				"/>
			</g>
		</g>
		<g id="Légumes">
			<g>
				<g>
					<path class="st11" d="M1276.5,793.9c1.4-4.2,8.2-7.7,8.2-12.4c0-2.3-1.7-4.4-3.6-6.4c-1-1.5-2.4-2.9-3.7-4.3
						c-0.4-0.6-0.7-1.2-0.9-1.8c-1.2-3.8,1.3-9.6,0.1-13.4l0,0l0,0c-0.2-0.5-0.4-1-0.7-1.4c-0.4-0.5-0.8-0.9-1.3-1.2l-0.5-0.6
						c-0.1-0.3-0.3-0.6-0.5-0.9c-0.2-0.3-0.5-0.6-0.9-0.9l0-0.1h0c-3.2-2.5-9.7-1.8-13-4.2c0,0-0.1-0.1-0.1-0.1
						c-1.1-1.8-2.1-4-3.3-5.8l0,0l0,0c-0.5-0.7-1-1.4-1.6-1.9l-0.7-0.8c-0.5-0.8-1.1-1.4-1.7-2l0,0l0,0c-0.6-0.5-1.2-0.9-1.9-1.1
						c-4.2-1.4-9.7,4-14.4,4c-4.7,0-10.1-5.4-14.4-4c-4.4,1.4-5.6,9-9.2,11.7c-3.7,2.7-11.3,1.5-14,5.2c-2.6,3.6,0.8,10.5-0.6,14.9
						c-1.4,4.2-8.2,7.7-8.2,12.4c0,2.3,1.7,4.4,3.6,6.4c1,1.5,2.4,2.9,3.7,4.3c0.4,0.6,0.7,1.2,0.9,1.8c1.3,4-1.5,10.1,0.1,13.9l0,0
						l0,0c0.1,0.3,0.3,0.6,0.5,0.9c0.3,0.4,0.7,0.8,1.2,1.1l0.7,0.9c0.1,0.3,0.3,0.5,0.5,0.8c0.3,0.4,0.6,0.7,1,1l0,0l0,0
						c3.2,2.5,9.7,1.8,13,4.2c0,0,0.1,0.1,0.1,0.1c1.7,2.7,3,6.2,5.2,8c1,1.7,2.2,3.1,3.9,3.6c4.2,1.4,9.7-4,14.4-4
						c4.7,0,10.1,5.4,14.4,4c4.4-1.4,5.6-9,9.2-11.7c3.7-2.7,11.3-1.5,14-5.2C1278.5,805.2,1275.1,798.3,1276.5,793.9z"/>
					<path class="st9" d="M1282.4,778.7c0,4.7-6.9,8.2-8.2,12.4c-1.4,4.4,2,11.3-0.6,14.9c-2.7,3.7-10.3,2.5-14,5.2
						c-3.6,2.6-4.9,10.3-9.2,11.7c-4.2,1.4-9.7-4-14.4-4s-10.1,5.4-14.4,4c-4.4-1.4-5.6-9-9.2-11.7c-3.7-2.7-11.3-1.5-14-5.2
						c-2.6-3.6,0.8-10.5-0.6-14.9c-1.4-4.2-8.2-7.7-8.2-12.4c0-4.7,6.9-8.2,8.2-12.4c1.4-4.4-2-11.3,0.6-14.9
						c2.7-3.7,10.3-2.5,14-5.2c3.6-2.6,4.9-10.3,9.2-11.7c4.2-1.4,9.7,4,14.4,4c4.7,0,10.1-5.4,14.4-4c4.4,1.4,5.6,9,9.2,11.7
						c3.7,2.7,11.3,1.5,14,5.2c2.6,3.6-0.8,10.5,0.6,14.9C1275.6,770.5,1282.4,774.1,1282.4,778.7z"/>
				</g>
				<path class="st6" d="M1262.7,763.7c10,23.9-7.5,40.2-24.3,41.2c-16,1-27.5-10.4-27.5-26.4c0-12.8,10.4-23.2,23.2-23.2
					c10.2,0,18.5,8.3,18.5,18.5c0,8.2-6.6,14.8-14.8,14.8c-6.6,0-11.9-5.3-11.9-11.9c0-5.2,4.2-9.5,9.5-9.5c4.2,0,7.6,3.4,7.6,7.6
					c0,3.4-2.7,6.1-6.1,6.1c-2.7,0-4.9-2.2-4.9-4.9c0-2.1,1.7-3.9,3.9-3.9c1.7,0,3.1,1.4,3.1,3.1"/>
			</g>
			<g>
				<g>
					<path class="st11" d="M1240.6,408.4c-2.8-3.4-2-11.1-5.9-13.7c-1.9-1.3-4.6-1-7.3-0.5c-1.8,0-3.7,0.5-5.6,0.8
						c-0.7,0-1.4-0.1-2-0.2c-3.9-1.1-7.4-6.3-11.2-7.4l0,0l0,0c-0.5-0.1-1.1-0.2-1.6-0.2c-0.6,0-1.2,0.2-1.8,0.4l-0.8,0.1
						c-0.3-0.1-0.7-0.1-1-0.1c-0.4,0-0.8,0.1-1.2,0.2l-0.1,0l0,0c-3.9,1.3-6.9,7.1-10.7,8.6c-0.1,0-0.1,0-0.2,0.1
						c-2.2-0.1-4.5-0.4-6.6-0.4l0,0l0,0c-0.9,0-1.7,0.1-2.5,0.3l-1,0.1c-0.9,0-1.8,0.1-2.6,0.3l0,0l0,0c-0.7,0.2-1.4,0.5-2,1
						c-3.4,2.8-1.9,10.3-4.5,14.2c-2.6,3.9-10.1,5.5-11.2,9.8c-1.2,4.4,4.5,9.6,4.7,14.1c0.2,4.5-4.9,10.3-3.3,14.5
						c1.6,4.2,9.2,5.1,12.1,8.7c2.8,3.4,2,11.1,5.9,13.7c1.9,1.3,4.6,1,7.3,0.5c1.8,0,3.7-0.5,5.6-0.8c0.7,0,1.4,0.1,2,0.2
						c4.1,1.1,7.7,6.8,11.7,7.5l0,0l0,0c0.4,0.1,0.7,0.1,1.1,0.1c0.5,0,1.1-0.2,1.6-0.4l1.1-0.1c0.3,0,0.6,0.1,0.9,0
						c0.5,0,0.9-0.1,1.3-0.3l0.1,0l0,0c3.8-1.4,6.8-7.1,10.6-8.6c0.1,0,0.1,0,0.2-0.1c3.2,0.1,6.9,0.9,9.5,0c2,0,3.8-0.2,5.1-1.3
						c3.4-2.8,1.9-10.3,4.5-14.2c2.6-3.9,10.1-5.5,11.2-9.8c1.2-4.4-4.5-9.6-4.7-14.1c-0.2-4.5,4.9-10.3,3.3-14.5
						C1251.2,412.8,1243.5,412,1240.6,408.4z"/>
					<path class="st9" d="M1231.2,395.1c3.9,2.6,3.1,10.2,5.9,13.7c2.9,3.6,10.5,4.5,12.1,8.7c1.6,4.2-3.5,10-3.3,14.5
						c0.2,4.5,5.9,9.7,4.7,14.1c-1.2,4.3-8.7,5.9-11.2,9.8c-2.6,3.9-1,11.4-4.5,14.2c-3.6,2.9-10.6-0.2-14.8,1.4
						c-4.2,1.6-7.4,8.6-12,8.9c-4.5,0.2-8.4-6.4-12.8-7.6c-4.3-1.2-11,2.7-14.9,0.1c-3.9-2.6-3.1-10.2-5.9-13.7
						c-2.9-3.6-10.5-4.5-12.1-8.7c-1.6-4.2,3.5-10,3.3-14.5c-0.2-4.5-5.9-9.7-4.7-14.1c1.2-4.3,8.7-5.9,11.2-9.8
						c2.6-3.9,1-11.4,4.5-14.2c3.6-2.9,10.6,0.2,14.8-1.4c4.2-1.6,7.4-8.6,12-8.9c4.5-0.2,8.4,6.4,12.8,7.6
						C1220.5,396.4,1227.3,392.6,1231.2,395.1z"/>
				</g>
				<path class="st6" d="M1207.8,403.5c25.5,4.7,29.6,28.3,21.3,42.9c-7.9,13.9-23.7,17.3-37.1,8.6c-10.7-7-13.7-21.3-6.8-32.1
					c5.6-8.6,17.1-11,25.6-5.4c6.9,4.5,8.8,13.7,4.3,20.5c-3.6,5.5-10.9,7-16.4,3.5c-4.4-2.9-5.6-8.7-2.8-13.1
					c2.3-3.5,7-4.5,10.5-2.2c2.8,1.8,3.6,5.6,1.8,8.4c-1.5,2.2-4.5,2.9-6.7,1.4c-1.8-1.2-2.3-3.6-1.1-5.4c0.9-1.4,2.9-1.8,4.3-0.9"
					/>
			</g>
			<g>
				<g>
					<path class="st11" d="M1559.5,290.3c-2.8-3.4-2-11.1-5.9-13.7c-1.9-1.3-4.6-1-7.3-0.5c-1.8,0-3.7,0.5-5.6,0.8
						c-0.7,0-1.4-0.1-2-0.2c-3.9-1.1-7.4-6.3-11.2-7.4l0,0l0,0c-0.5-0.1-1.1-0.2-1.6-0.2c-0.6,0-1.2,0.2-1.8,0.4l-0.8,0.1
						c-0.3-0.1-0.7-0.1-1-0.1c-0.4,0-0.8,0.1-1.2,0.2l-0.1,0l0,0c-3.9,1.3-6.9,7.1-10.7,8.6c-0.1,0-0.1,0-0.2,0.1
						c-2.2-0.1-4.5-0.4-6.6-0.4l0,0h0c-0.9,0-1.7,0.1-2.5,0.3l-1,0.1c-0.9,0-1.8,0.1-2.6,0.3l0,0l0,0c-0.7,0.2-1.4,0.5-2,1
						c-3.4,2.8-1.9,10.3-4.5,14.2c-2.6,3.9-10.1,5.5-11.2,9.8c-1.2,4.4,4.5,9.6,4.7,14.1c0.2,4.5-4.9,10.3-3.3,14.5
						c1.6,4.2,9.2,5.1,12.1,8.7c2.8,3.4,2,11.1,5.9,13.7c1.9,1.3,4.6,1,7.3,0.5c1.8,0,3.7-0.5,5.6-0.8c0.7,0,1.4,0.1,2,0.2
						c4.1,1.1,7.7,6.8,11.7,7.5l0,0l0,0c0.4,0.1,0.7,0.1,1.1,0.1c0.5,0,1.1-0.2,1.6-0.4l1.1-0.1c0.3,0,0.6,0.1,0.9,0
						c0.5,0,0.9-0.1,1.3-0.3l0.1,0l0,0c3.8-1.4,6.8-7.1,10.6-8.6c0.1,0,0.1,0,0.2-0.1c3.2,0.1,6.9,0.9,9.5,0c2,0,3.8-0.2,5.1-1.3
						c3.4-2.8,1.9-10.3,4.5-14.2c2.6-3.9,10.1-5.5,11.2-9.8c1.2-4.4-4.5-9.6-4.7-14.1c-0.2-4.5,4.9-10.3,3.3-14.5
						C1570,294.7,1562.4,293.8,1559.5,290.3z"/>
					<path class="st9" d="M1550,277c3.9,2.6,3.1,10.2,5.9,13.7c2.9,3.6,10.5,4.5,12.1,8.7c1.6,4.2-3.5,10-3.3,14.5
						c0.2,4.5,5.9,9.7,4.7,14.1c-1.2,4.3-8.7,5.9-11.2,9.8c-2.6,3.9-1,11.4-4.5,14.2c-3.6,2.9-10.6-0.2-14.8,1.4
						c-4.2,1.6-7.4,8.6-12,8.9c-4.5,0.2-8.4-6.4-12.8-7.6c-4.3-1.2-11,2.7-14.9,0.1c-3.9-2.6-3.1-10.2-5.9-13.7
						c-2.9-3.6-10.5-4.5-12.1-8.7c-1.6-4.2,3.5-10,3.3-14.5c-0.2-4.5-5.9-9.7-4.7-14.1c1.2-4.3,8.7-5.9,11.2-9.8
						c2.6-3.9,1-11.4,4.5-14.2c3.6-2.9,10.6,0.2,14.8-1.4c4.2-1.6,7.4-8.6,12-8.9c4.5-0.2,8.4,6.4,12.8,7.6
						C1539.4,278.3,1546.1,274.4,1550,277z"/>
				</g>
				<path class="st6" d="M1526.6,285.4c25.5,4.7,29.6,28.3,21.3,42.9c-7.9,13.9-23.7,17.3-37.1,8.6c-10.7-7-13.7-21.3-6.8-32.1
					c5.6-8.6,17.1-11,25.6-5.4c6.9,4.5,8.8,13.7,4.3,20.5c-3.6,5.5-10.9,7-16.4,3.5c-4.4-2.9-5.6-8.7-2.8-13.1
					c2.3-3.5,7-4.5,10.5-2.2c2.8,1.8,3.6,5.6,1.8,8.4c-1.5,2.2-4.5,2.9-6.7,1.4c-1.8-1.2-2.3-3.6-1.1-5.4c0.9-1.4,2.9-1.8,4.3-0.9"
					/>
			</g>
		</g>
		<g id="Petits_Cercles">
			<path class="st11" d="M1023.3,820.3c0,3.3-2.7,6-6,6s-6-2.7-6-6c0-3.3,2.7-6,6-6S1023.3,817,1023.3,820.3z"/>
			<path class="st11" d="M1427.9,419c0,3.3-2.7,6-6,6s-6-2.7-6-6c0-3.3,2.7-6,6-6S1427.9,415.7,1427.9,419z"/>
			<circle class="st11" cx="1450.5" cy="232.9" r="6"/>
			<path class="st11" d="M1201.2,629.4c0,3.3-2.7,6-6,6c-3.3,0-6-2.7-6-6s2.7-6,6-6C1198.5,623.4,1201.2,626.1,1201.2,629.4z"/>
		</g>
		<g id="Oeuf">
			<path class="st11" d="M1524.2,611.7c14.2-37,12.5-89.4-8.4-100.1s-64.4,18.3-86.3,51.4c-17.6,26.7-6.8,65.3,19.3,78.7
				C1475,655.2,1512.8,641.6,1524.2,611.7z"/>
			<path class="st9" d="M1521.5,606.8c14.2-37,12.5-89.4-8.4-100.1c-20.9-10.7-64.4,18.3-86.3,51.4c-17.6,26.7-6.8,65.3,19.3,78.7
				C1472.3,650.3,1510,636.7,1521.5,606.8z"/>
			<circle class="st11" cx="1470.1" cy="590.3" r="28.6"/>
		</g>
	</g>
</g>
</svg>
